<svg xmlns="http://www.w3.org/2000/svg" xmlns:xlink="http://www.w3.org/1999/xlink" width="24" height="24" viewBox="0 0 24 24"><defs><style>.cls-1{fill:#f33122;fill-rule:evenodd;}</style></defs><title>check-in-date</title><g id="check-in-date"><path id="check-in-date-2" data-name="check-in-date" class="cls-1" d="M19,3H18V2a1,1,0,0,0-1-1H16a1,1,0,0,0-1,1V3H9V2A1,1,0,0,0,8,1H7A1,1,0,0,0,6,2V3H5A2,2,0,0,0,3,5V19a2,2,0,0,0,2,2H19a2,2,0,0,0,2-2V5A2,2,0,0,0,19,3ZM9,19H5V16H9Zm0-8H5V8H9Zm5,8H10V16h4Zm0-4H10V12h4Zm0-4H10V8h4Zm5,8H15V16h4Zm0-4H15V12h4Zm0-4H15V8h4Z"/></g></svg>